<svg width="37" height="28" viewBox="0 0 37 28" fill="none" xmlns="http://www.w3.org/2000/svg">
<path d="M31.3702 2.36479C31.36 2.345 31.3429 2.32949 31.3222 2.32104C28.9233 1.22783 26.3917 0.448284 23.7909 0.00191211C23.7673 -0.00245108 23.7428 0.000696576 23.7211 0.0109074C23.6994 0.0211183 23.6815 0.0378725 23.6699 0.0587873C23.3252 0.68022 23.0122 1.31853 22.7323 1.97129C19.9287 1.54859 17.077 1.54859 14.2735 1.97129C13.9917 1.31688 13.6737 0.678403 13.3211 0.0587873C13.309 0.038327 13.291 0.0219587 13.2694 0.0118141C13.2478 0.00166961 13.2236 -0.00178092 13.2 0.00191211C10.5989 0.447347 8.06723 1.22695 5.66863 2.32111C5.64809 2.32975 5.63077 2.34451 5.61904 2.36336C0.8223 9.47825 -0.491708 16.4182 0.1529 23.2722C0.154713 23.289 0.159909 23.3053 0.168179 23.3201C0.176449 23.3348 0.187623 23.3478 0.201038 23.3582C2.99413 25.4123 6.11825 26.9802 9.44006 27.995C9.46345 28.002 9.48843 28.0016 9.51164 27.9941C9.53485 27.9865 9.55517 27.9721 9.56987 27.9527C10.2833 26.9885 10.9155 25.9675 11.46 24.9001C11.4674 24.8855 11.4717 24.8694 11.4725 24.853C11.4733 24.8366 11.4705 24.8202 11.4645 24.8049C11.4584 24.7896 11.4492 24.7758 11.4373 24.7643C11.4255 24.7529 11.4114 24.744 11.3958 24.7384C10.399 24.3595 9.43385 23.9028 8.50958 23.3725C8.49279 23.3627 8.47869 23.349 8.46852 23.3325C8.45836 23.316 8.45244 23.2972 8.45129 23.2779C8.45013 23.2586 8.45379 23.2393 8.46193 23.2218C8.47006 23.2042 8.48243 23.1889 8.49794 23.1772C8.69188 23.0329 8.88594 22.8827 9.07113 22.7311C9.08758 22.7176 9.10749 22.709 9.12861 22.7062C9.14973 22.7034 9.17123 22.7064 9.19069 22.7151C15.2459 25.4599 21.8016 25.4599 27.7851 22.7151C27.8046 22.7059 27.8264 22.7024 27.8478 22.705C27.8692 22.7075 27.8895 22.7161 27.9062 22.7297C28.0915 22.8813 28.2855 23.0329 28.4808 23.1772C28.4964 23.1887 28.5089 23.204 28.5172 23.2215C28.5254 23.239 28.5292 23.2582 28.5282 23.2776C28.5272 23.2969 28.5214 23.3156 28.5114 23.3322C28.5014 23.3488 28.4874 23.3626 28.4706 23.3725C27.5485 23.9073 26.5825 24.3637 25.583 24.7369C25.5675 24.7428 25.5534 24.7518 25.5416 24.7635C25.5299 24.7751 25.5207 24.7891 25.5148 24.8045C25.5088 24.8199 25.5062 24.8364 25.5072 24.8529C25.5081 24.8694 25.5125 24.8854 25.5201 24.9001C26.0737 25.9616 26.7049 26.9813 27.4087 27.9511C27.423 27.9709 27.4432 27.9859 27.4665 27.9937C27.4898 28.0016 27.515 28.002 27.5385 27.9948C30.8663 26.9834 33.9959 25.4154 36.7925 23.3582C36.8061 23.3483 36.8174 23.3357 36.8257 23.3211C36.834 23.3065 36.8391 23.2903 36.8406 23.2737C37.6123 15.3497 35.5486 8.46662 31.3702 2.36479ZM12.3643 19.0988C10.5412 19.0988 9.03903 17.4371 9.03903 15.3964C9.03903 13.3556 10.5121 11.6938 12.3643 11.6938C14.2309 11.6938 15.7186 13.3701 15.6894 15.3963C15.6894 17.4371 14.2163 19.0988 12.3643 19.0988ZM24.6586 19.0988C22.8356 19.0988 21.3335 17.4371 21.3335 15.3964C21.3335 13.3556 22.8065 11.6938 24.6586 11.6938C26.5254 11.6938 28.013 13.3701 27.9839 15.3963C27.9839 17.4371 26.5254 19.0988 24.6586 19.0988Z" fill="white"/>
</svg>
